<mxfile host="app.diagrams.net" modified="2023-08-09T15:57:31.306Z" agent="Mozilla/5.0 (Windows NT 10.0; Win64; x64; rv:109.0) Gecko/20100101 Firefox/116.0" etag="sAwnoaCPEVWtB-96wyEn" version="21.6.7" type="github">
  <diagram name="Page-1" id="_n4Y3lhtJcdOq41wuxjg">
    <mxGraphModel dx="1050" dy="530" grid="1" gridSize="10" guides="1" tooltips="1" connect="1" arrows="1" fold="1" page="1" pageScale="1" pageWidth="850" pageHeight="1100" math="0" shadow="0">
      <root>
        <mxCell id="0" />
        <mxCell id="1" parent="0" />
        <mxCell id="TuAhf07V3YjWdqM7vYfc-1" value="" style="html=1;verticalLabelPosition=bottom;align=center;labelBackgroundColor=#ffffff;verticalAlign=top;strokeWidth=2;strokeColor=#0080F0;shadow=0;dashed=0;shape=mxgraph.ios7.icons.smartphone;" vertex="1" parent="1">
          <mxGeometry x="40" y="207" width="70" height="110" as="geometry" />
        </mxCell>
        <mxCell id="TuAhf07V3YjWdqM7vYfc-36" style="edgeStyle=orthogonalEdgeStyle;rounded=0;orthogonalLoop=1;jettySize=auto;html=1;exitX=0;exitY=0.5;exitDx=0;exitDy=0;exitPerimeter=0;endArrow=classic;endFill=1;startArrow=classic;startFill=1;" edge="1" parent="1" source="TuAhf07V3YjWdqM7vYfc-3" target="TuAhf07V3YjWdqM7vYfc-1">
          <mxGeometry relative="1" as="geometry" />
        </mxCell>
        <mxCell id="TuAhf07V3YjWdqM7vYfc-3" value="" style="outlineConnect=0;dashed=0;verticalLabelPosition=bottom;verticalAlign=top;align=center;html=1;shape=mxgraph.aws3.elastic_load_balancing;fillColor=#F58534;gradientColor=none;" vertex="1" parent="1">
          <mxGeometry x="370" y="215.5" width="76.5" height="93" as="geometry" />
        </mxCell>
        <mxCell id="TuAhf07V3YjWdqM7vYfc-25" style="edgeStyle=orthogonalEdgeStyle;rounded=0;orthogonalLoop=1;jettySize=auto;html=1;exitX=0.5;exitY=0;exitDx=0;exitDy=0;entryX=0;entryY=0.5;entryDx=0;entryDy=0;" edge="1" parent="1" source="TuAhf07V3YjWdqM7vYfc-10" target="TuAhf07V3YjWdqM7vYfc-23">
          <mxGeometry relative="1" as="geometry" />
        </mxCell>
        <mxCell id="TuAhf07V3YjWdqM7vYfc-33" style="edgeStyle=orthogonalEdgeStyle;rounded=0;orthogonalLoop=1;jettySize=auto;html=1;exitX=0;exitY=0.5;exitDx=0;exitDy=0;startArrow=classic;startFill=1;" edge="1" parent="1" source="TuAhf07V3YjWdqM7vYfc-10" target="TuAhf07V3YjWdqM7vYfc-3">
          <mxGeometry relative="1" as="geometry" />
        </mxCell>
        <mxCell id="TuAhf07V3YjWdqM7vYfc-10" value="Tweet" style="whiteSpace=wrap;html=1;aspect=fixed;" vertex="1" parent="1">
          <mxGeometry x="640" y="129" width="80" height="80" as="geometry" />
        </mxCell>
        <mxCell id="TuAhf07V3YjWdqM7vYfc-26" style="edgeStyle=orthogonalEdgeStyle;rounded=0;orthogonalLoop=1;jettySize=auto;html=1;exitX=0.5;exitY=0;exitDx=0;exitDy=0;" edge="1" parent="1" source="TuAhf07V3YjWdqM7vYfc-12">
          <mxGeometry relative="1" as="geometry">
            <mxPoint x="800" y="100" as="targetPoint" />
            <Array as="points">
              <mxPoint x="610" y="100" />
            </Array>
          </mxGeometry>
        </mxCell>
        <mxCell id="TuAhf07V3YjWdqM7vYfc-32" style="edgeStyle=orthogonalEdgeStyle;rounded=0;orthogonalLoop=1;jettySize=auto;html=1;exitX=0;exitY=0.5;exitDx=0;exitDy=0;startArrow=classic;startFill=1;" edge="1" parent="1" source="TuAhf07V3YjWdqM7vYfc-12" target="TuAhf07V3YjWdqM7vYfc-3">
          <mxGeometry relative="1" as="geometry" />
        </mxCell>
        <mxCell id="TuAhf07V3YjWdqM7vYfc-12" value="User" style="whiteSpace=wrap;html=1;aspect=fixed;" vertex="1" parent="1">
          <mxGeometry x="570" y="222" width="80" height="80" as="geometry" />
        </mxCell>
        <mxCell id="TuAhf07V3YjWdqM7vYfc-27" style="edgeStyle=orthogonalEdgeStyle;rounded=0;orthogonalLoop=1;jettySize=auto;html=1;exitX=0.5;exitY=0;exitDx=0;exitDy=0;entryX=0;entryY=0.5;entryDx=0;entryDy=0;" edge="1" parent="1" source="TuAhf07V3YjWdqM7vYfc-13" target="TuAhf07V3YjWdqM7vYfc-23">
          <mxGeometry relative="1" as="geometry" />
        </mxCell>
        <mxCell id="TuAhf07V3YjWdqM7vYfc-34" style="edgeStyle=orthogonalEdgeStyle;rounded=0;orthogonalLoop=1;jettySize=auto;html=1;exitX=0;exitY=0.5;exitDx=0;exitDy=0;startArrow=classic;startFill=1;" edge="1" parent="1" source="TuAhf07V3YjWdqM7vYfc-13" target="TuAhf07V3YjWdqM7vYfc-3">
          <mxGeometry relative="1" as="geometry" />
        </mxCell>
        <mxCell id="TuAhf07V3YjWdqM7vYfc-38" style="edgeStyle=orthogonalEdgeStyle;rounded=0;orthogonalLoop=1;jettySize=auto;html=1;exitX=0.5;exitY=1;exitDx=0;exitDy=0;startArrow=classic;startFill=1;" edge="1" parent="1" source="TuAhf07V3YjWdqM7vYfc-13" target="TuAhf07V3YjWdqM7vYfc-37">
          <mxGeometry relative="1" as="geometry" />
        </mxCell>
        <mxCell id="TuAhf07V3YjWdqM7vYfc-13" value="Media/Photo" style="whiteSpace=wrap;html=1;aspect=fixed;" vertex="1" parent="1">
          <mxGeometry x="486.5" y="310" width="80" height="80" as="geometry" />
        </mxCell>
        <mxCell id="TuAhf07V3YjWdqM7vYfc-15" style="edgeStyle=orthogonalEdgeStyle;rounded=0;orthogonalLoop=1;jettySize=auto;html=1;exitX=0.5;exitY=0;exitDx=0;exitDy=0;exitPerimeter=0;entryX=1;entryY=0.5;entryDx=0;entryDy=0;startArrow=classic;startFill=1;" edge="1" parent="1" source="TuAhf07V3YjWdqM7vYfc-14" target="TuAhf07V3YjWdqM7vYfc-10">
          <mxGeometry relative="1" as="geometry">
            <Array as="points">
              <mxPoint x="840" y="169" />
            </Array>
          </mxGeometry>
        </mxCell>
        <mxCell id="TuAhf07V3YjWdqM7vYfc-14" value="" style="outlineConnect=0;dashed=0;verticalLabelPosition=bottom;verticalAlign=top;align=center;html=1;shape=mxgraph.aws3.cache_node;fillColor=#2E73B8;gradientColor=none;" vertex="1" parent="1">
          <mxGeometry x="810" y="224" width="60" height="63" as="geometry" />
        </mxCell>
        <mxCell id="TuAhf07V3YjWdqM7vYfc-19" style="edgeStyle=orthogonalEdgeStyle;rounded=0;orthogonalLoop=1;jettySize=auto;html=1;exitX=0;exitY=0.5;exitDx=0;exitDy=0;exitPerimeter=0;entryX=1;entryY=0.5;entryDx=0;entryDy=0;startArrow=classic;startFill=1;" edge="1" parent="1" source="TuAhf07V3YjWdqM7vYfc-16" target="TuAhf07V3YjWdqM7vYfc-10">
          <mxGeometry relative="1" as="geometry" />
        </mxCell>
        <mxCell id="TuAhf07V3YjWdqM7vYfc-20" style="edgeStyle=orthogonalEdgeStyle;rounded=0;orthogonalLoop=1;jettySize=auto;html=1;exitX=0;exitY=0.5;exitDx=0;exitDy=0;exitPerimeter=0;entryX=1;entryY=0.5;entryDx=0;entryDy=0;" edge="1" parent="1" source="TuAhf07V3YjWdqM7vYfc-16" target="TuAhf07V3YjWdqM7vYfc-12">
          <mxGeometry relative="1" as="geometry" />
        </mxCell>
        <mxCell id="TuAhf07V3YjWdqM7vYfc-21" style="edgeStyle=orthogonalEdgeStyle;rounded=0;orthogonalLoop=1;jettySize=auto;html=1;exitX=0;exitY=0.5;exitDx=0;exitDy=0;exitPerimeter=0;" edge="1" parent="1" source="TuAhf07V3YjWdqM7vYfc-16" target="TuAhf07V3YjWdqM7vYfc-13">
          <mxGeometry relative="1" as="geometry" />
        </mxCell>
        <mxCell id="TuAhf07V3YjWdqM7vYfc-16" value="NoSQL" style="strokeWidth=2;html=1;shape=mxgraph.flowchart.database;whiteSpace=wrap;" vertex="1" parent="1">
          <mxGeometry x="810" y="320" width="60" height="60" as="geometry" />
        </mxCell>
        <mxCell id="TuAhf07V3YjWdqM7vYfc-23" value="Log Stream" style="whiteSpace=wrap;html=1;aspect=fixed;" vertex="1" parent="1">
          <mxGeometry x="800" y="60" width="80" height="80" as="geometry" />
        </mxCell>
        <mxCell id="TuAhf07V3YjWdqM7vYfc-35" style="edgeStyle=orthogonalEdgeStyle;rounded=0;orthogonalLoop=1;jettySize=auto;html=1;exitX=0;exitY=0.5;exitDx=0;exitDy=0;exitPerimeter=0;" edge="1" parent="1" source="TuAhf07V3YjWdqM7vYfc-28" target="TuAhf07V3YjWdqM7vYfc-1">
          <mxGeometry relative="1" as="geometry" />
        </mxCell>
        <mxCell id="TuAhf07V3YjWdqM7vYfc-28" value="" style="outlineConnect=0;dashed=0;verticalLabelPosition=bottom;verticalAlign=top;align=center;html=1;shape=mxgraph.aws3.cloudfront;fillColor=#F58536;gradientColor=none;" vertex="1" parent="1">
          <mxGeometry x="250" y="70" width="76.5" height="93" as="geometry" />
        </mxCell>
        <mxCell id="TuAhf07V3YjWdqM7vYfc-29" value="React Page and Static Assets" style="text;html=1;strokeColor=none;fillColor=none;align=center;verticalAlign=middle;whiteSpace=wrap;rounded=0;" vertex="1" parent="1">
          <mxGeometry x="237.25" y="30" width="102" height="30" as="geometry" />
        </mxCell>
        <mxCell id="TuAhf07V3YjWdqM7vYfc-39" style="edgeStyle=orthogonalEdgeStyle;rounded=0;orthogonalLoop=1;jettySize=auto;html=1;exitX=0;exitY=0.5;exitDx=0;exitDy=0;exitPerimeter=0;" edge="1" parent="1" source="TuAhf07V3YjWdqM7vYfc-37" target="TuAhf07V3YjWdqM7vYfc-1">
          <mxGeometry relative="1" as="geometry" />
        </mxCell>
        <mxCell id="TuAhf07V3YjWdqM7vYfc-37" value="" style="sketch=0;points=[[0,0,0],[0.25,0,0],[0.5,0,0],[0.75,0,0],[1,0,0],[0,1,0],[0.25,1,0],[0.5,1,0],[0.75,1,0],[1,1,0],[0,0.25,0],[0,0.5,0],[0,0.75,0],[1,0.25,0],[1,0.5,0],[1,0.75,0]];outlineConnect=0;fontColor=#232F3E;gradientColor=#60A337;gradientDirection=north;fillColor=#277116;strokeColor=#ffffff;dashed=0;verticalLabelPosition=bottom;verticalAlign=top;align=center;html=1;fontSize=12;fontStyle=0;aspect=fixed;shape=mxgraph.aws4.resourceIcon;resIcon=mxgraph.aws4.s3;" vertex="1" parent="1">
          <mxGeometry x="487.5" y="450" width="78" height="78" as="geometry" />
        </mxCell>
        <mxCell id="TuAhf07V3YjWdqM7vYfc-40" value="Load from Presigned URL" style="text;html=1;strokeColor=none;fillColor=none;align=center;verticalAlign=middle;whiteSpace=wrap;rounded=0;" vertex="1" parent="1">
          <mxGeometry x="226.88" y="460" width="122.75" height="30" as="geometry" />
        </mxCell>
      </root>
    </mxGraphModel>
  </diagram>
</mxfile>
